<svg width="23" height="23" viewBox="0 0 23 23" fill="none" xmlns="http://www.w3.org/2000/svg">
<rect width="23" height="23" rx="4" fill="#191919"/>
<path d="M5.25752 13.7074L10.8101 8.15475C11.0054 7.95949 11.322 7.95949 11.5173 8.15475L12.8277 9.46519C13.023 9.66045 13.3395 9.66045 13.5348 9.46519L14.1727 8.82726C14.368 8.632 14.368 8.31542 14.1727 8.12016L12.8623 6.80972C12.667 6.61446 12.667 6.29788 12.8623 6.10261L13.5002 5.46469C13.6955 5.26943 14.012 5.26943 14.2073 5.46469L17.5353 8.79267C17.7306 8.98793 17.7306 9.30452 17.5353 9.49978L9.2926 17.7425C9.19883 17.8362 9.07166 17.8889 8.93905 17.8889H5.61107C5.33493 17.8889 5.11107 17.6651 5.11107 17.3889V14.0609C5.11107 13.9283 5.16375 13.8011 5.25752 13.7074Z" fill="#11FAD5"/>
</svg>
